<svg width="1440" height="320" viewBox="0 0 1440 320" fill="none" xmlns="http://www.w3.org/2000/svg">
<rect width="1440" height="320" fill="#322A2E"/>
<rect width="32" height="320" fill="#B8BDAE" fill-opacity="0.08"/>
<rect x="64" width="32" height="320" fill="#B8BDAE" fill-opacity="0.08"/>
<rect x="128" width="32" height="320" fill="#B8BDAE" fill-opacity="0.08"/>
<rect x="192" width="32" height="320" fill="#B8BDAE" fill-opacity="0.08"/>
<rect x="256" width="32" height="320" fill="#B8BDAE" fill-opacity="0.08"/>
<rect x="320" width="32" height="320" fill="#B8BDAE" fill-opacity="0.08"/>
<rect x="384" width="32" height="320" fill="#B8BDAE" fill-opacity="0.08"/>
<rect x="448" width="32" height="320" fill="#B8BDAE" fill-opacity="0.08"/>
<rect x="512" width="32" height="320" fill="#B8BDAE" fill-opacity="0.08"/>
<rect x="576" width="32" height="320" fill="#B8BDAE" fill-opacity="0.08"/>
<rect x="640" width="32" height="320" fill="#B8BDAE" fill-opacity="0.08"/>
<rect x="704" width="32" height="320" fill="#B8BDAE" fill-opacity="0.08"/>
<rect x="768" width="32" height="320" fill="#B8BDAE" fill-opacity="0.08"/>
<rect x="832" width="32" height="320" fill="#B8BDAE" fill-opacity="0.08"/>
<rect x="896" width="32" height="320" fill="#B8BDAE" fill-opacity="0.08"/>
<rect x="960" width="32" height="320" fill="#B8BDAE" fill-opacity="0.08"/>
<rect x="1024" width="32" height="320" fill="#B8BDAE" fill-opacity="0.08"/>
<rect x="1088" width="32" height="320" fill="#B8BDAE" fill-opacity="0.08"/>
<rect x="1152" width="32" height="320" fill="#B8BDAE" fill-opacity="0.08"/>
<rect x="1216" width="32" height="320" fill="#B8BDAE" fill-opacity="0.08"/>
<rect x="1280" width="32" height="320" fill="#B8BDAE" fill-opacity="0.08"/>
<rect x="1344" width="32" height="320" fill="#B8BDAE" fill-opacity="0.08"/>
<rect x="1408" width="32" height="320" fill="#B8BDAE" fill-opacity="0.08"/>
</svg>
