<svg width="28" height="29" viewBox="0 0 28 29" fill="none" xmlns="http://www.w3.org/2000/svg">
<path d="M5.78753 12.355L2.35753 15.785C0.950887 17.1916 0.160645 19.0995 0.160645 21.0887C0.160645 23.078 0.950887 24.9859 2.35753 26.3925C3.76417 27.7991 5.67199 28.5894 7.66128 28.5894C9.65057 28.5894 11.5584 27.7991 12.965 26.3925L17.535 21.82C18.3833 20.9716 19.0156 19.9322 19.379 18.7889C19.7424 17.6456 19.8262 16.4317 19.6234 15.2493C19.4206 14.0669 18.9372 12.9504 18.2136 11.9935C17.49 11.0366 16.5475 10.2672 15.465 9.75L14 11.215C13.8513 11.364 13.7219 11.5311 13.615 11.7125C14.4513 11.9529 15.2104 12.4074 15.8173 13.0311C16.4241 13.6548 16.8576 14.4261 17.075 15.2687C17.2924 16.1113 17.2862 16.996 17.0569 17.8355C16.8275 18.6749 16.3831 19.44 15.7675 20.055L11.2 24.625C10.2618 25.5632 8.98935 26.0903 7.66253 26.0903C6.33571 26.0903 5.06323 25.5632 4.12503 24.625C3.18683 23.6868 2.65975 22.4143 2.65975 21.0875C2.65975 19.7607 3.18683 18.4882 4.12503 17.55L6.10753 15.57C5.82782 14.5218 5.71975 13.4352 5.78753 12.3525V12.355Z" fill="#322A2E"/>
<path d="M10.465 7.68C9.61676 8.52836 8.98441 9.56782 8.62102 10.7111C8.25764 11.8544 8.17381 13.0683 8.3766 14.2507C8.57938 15.4331 9.06285 16.5496 9.78642 17.5065C10.51 18.4634 11.4526 19.2328 12.535 19.75L14.4725 17.81C13.6249 17.5826 12.852 17.1362 12.2316 16.5155C11.6112 15.8948 11.165 15.1218 10.938 14.2741C10.711 13.4263 10.7111 12.5338 10.9384 11.6861C11.1656 10.8385 11.6119 10.0655 12.2325 9.445L16.8 4.875C17.7382 3.9368 19.0107 3.40972 20.3375 3.40972C21.6643 3.40972 22.9368 3.9368 23.875 4.875C24.8132 5.8132 25.3403 7.08568 25.3403 8.4125C25.3403 9.73932 24.8132 11.0118 23.875 11.95L21.8925 13.93C22.1725 14.98 22.28 16.0675 22.2125 17.1475L25.6425 13.7175C27.0491 12.3109 27.8394 10.403 27.8394 8.41375C27.8394 6.42446 27.0491 4.51664 25.6425 3.11C24.2359 1.70336 22.328 0.913116 20.3387 0.913116C18.3495 0.913116 16.4416 1.70336 15.035 3.11L10.465 7.68Z" fill="#322A2E"/>
</svg>
