<svg width="41" height="40" viewBox="0 0 41 40" fill="none" xmlns="http://www.w3.org/2000/svg">
<path d="M7.80375 0C3.75779 0 0.5 3.25779 0.5 7.30375V32.6962C0.5 36.7422 3.75779 40 7.80375 40H21.5662V24.3625H17.4312V18.7325H21.5662V13.9225C21.5662 10.1435 24.0094 6.67375 29.6375 6.67375C31.9162 6.67375 33.6012 6.89251 33.6012 6.89251L33.4687 12.15C33.4687 12.15 31.7502 12.1338 29.8749 12.1338C27.8454 12.1338 27.5199 13.0689 27.5199 14.6213V18.7325H33.6299L33.3637 24.3625H27.5199V40H33.1962C37.2421 40 40.4999 36.7422 40.4999 32.6963V7.30379C40.4999 3.25783 37.2421 3.99999e-05 33.1962 3.99999e-05H7.80371L7.80375 0Z" fill="#F8F5EA"/>
</svg>
