<svg width="28" height="28" viewBox="0 0 28 28" fill="none" xmlns="http://www.w3.org/2000/svg">
<path d="M13.9962 9.33135C11.4255 9.33135 9.32767 11.4293 9.32767 14C9.32767 16.5707 11.4255 18.6687 13.9962 18.6687C16.5669 18.6687 18.6648 16.5707 18.6648 14C18.6648 11.4293 16.5669 9.33135 13.9962 9.33135ZM27.9984 14C27.9984 12.0667 28.0159 10.1509 27.9074 8.2211C27.7988 5.97958 27.2875 3.99024 25.6484 2.35113C24.0058 0.708519 22.02 0.200677 19.7785 0.0921032C17.8453 -0.0164701 15.9295 0.00104176 13.9997 0.00104176C12.0665 0.00104176 10.1507 -0.0164701 8.22094 0.0921032C5.97947 0.200677 3.99016 0.712022 2.35109 2.35113C0.708507 3.99374 0.200673 5.97958 0.0921015 8.2211C-0.0164698 10.1544 0.00104174 12.0702 0.00104174 14C0.00104174 15.9298 -0.0164698 17.8491 0.0921015 19.7789C0.200673 22.0204 0.712009 24.0098 2.35109 25.6489C3.99367 27.2915 5.97947 27.7993 8.22094 27.9079C10.1542 28.0165 12.07 27.999 13.9997 27.999C15.933 27.999 17.8488 28.0165 19.7785 27.9079C22.02 27.7993 24.0093 27.288 25.6484 25.6489C27.291 24.0063 27.7988 22.0204 27.9074 19.7789C28.0195 17.8491 27.9984 15.9333 27.9984 14ZM13.9962 21.1834C10.0211 21.1834 6.81302 17.9752 6.81302 14C6.81302 10.0248 10.0211 6.81665 13.9962 6.81665C17.9713 6.81665 21.1795 10.0248 21.1795 14C21.1795 17.9752 17.9713 21.1834 13.9962 21.1834ZM21.4736 8.20008C20.5455 8.20008 19.796 7.45057 19.796 6.52245C19.796 5.59432 20.5455 4.84481 21.4736 4.84481C22.4018 4.84481 23.1513 5.59432 23.1513 6.52245C23.1515 6.74284 23.1083 6.96111 23.0241 7.16478C22.9399 7.36844 22.8163 7.55349 22.6605 7.70933C22.5047 7.86517 22.3196 7.98873 22.116 8.07294C21.9123 8.15715 21.694 8.20036 21.4736 8.20008Z" fill="#322A2E"/>
</svg>
