<svg width="800" height="400" viewBox="0 0 800 400" fill="none" xmlns="http://www.w3.org/2000/svg">
<path d="M728.21 82.57C704.75 82.57 690.18 95.01 690.18 115.02C690.18 137.95 705.03 141.37 713.89 141.37C722.25 141.37 726.97 138.1 729.47 135.34C733.37 131.04 734.96 124.91 734.19 117.13C733.89 114.04 731.14 111.79 728.05 112.08C724.96 112.38 722.7 115.14 723 118.23C723.3 121.31 723.23 125.48 721.13 127.78C719.72 129.33 717.28 130.12 713.89 130.12C706.41 130.12 701.43 127.56 701.43 115.01C701.43 101.54 711.19 93.81 728.21 93.81C739.75 93.81 755.08 97.21 755.08 126.5C755.08 153.37 725.7 169.41 676.48 169.41C668.85 169.41 661.24 169.25 653.64 168.95C579 165.99 505.61 149.01 433.91 128.74C432.03 128.21 430.15 127.67 428.27 127.13C380.65 113.53 333.46 98.44 286.81 81.85C253.92 70.16 221.02 57.67 186.51 52.41C152.01 47.17 115.19 49.73 84.74 66.77C34.59 94.86 14.62 165.33 55.91 209.95C71.15 226.42 91.82 235.49 114.12 235.49C179.66 235.49 193.42 201.76 193.42 173.47C193.42 153.64 185.04 138.34 169.17 129.22C154.77 120.93 138.26 120.04 131.84 120.04C110.17 120.04 93.2 136.1 93.2 156.61C93.2 168.51 102.97 179.27 115.95 181.64C126.29 183.54 139.58 179.59 145.96 162.91C147.02 160.15 145.86 156.94 143.2 155.67C140.17 154.24 136.65 155.7 135.51 158.76C132.14 167.69 125.74 172 117.96 170.58C110.5 169.22 104.44 162.95 104.44 156.61C104.44 140.17 118.54 131.29 131.82 131.29C147.94 131.29 163.28 138.92 170.44 153.8C175.13 163.53 176.19 175.56 174.39 186.15C172.76 195.64 168.34 204.79 161.25 211.31C150.98 220.78 136.34 223.91 122.37 224.46C112.44 224.85 102.38 224.12 92.89 221.2C64.95 212.62 49.69 183.81 54.02 155.54C62.12 102.71 118.95 74.34 167.89 75.12C184.49 75.37 201.87 78.67 216.26 87.3C230.45 95.81 241.38 110.92 247.76 125.99C253.77 140.19 254.9 154.81 255.08 170.04C222.15 188.9 202.55 212.57 202.55 238.25C202.55 299.97 315.73 350 455.32 350C594.91 350 708.1 299.97 708.1 238.25C708.1 217.17 694.89 197.44 671.95 180.63C673.46 180.64 674.96 180.65 676.47 180.65C705.86 180.65 728.72 175.34 744.42 164.88C758.55 155.47 766.32 141.83 766.32 126.49C766.32 98.16 752.79 82.56 728.2 82.56L728.21 82.57ZM279.65 157.91C276.8 129.54 253.32 100.5 244.38 91.3C235.2 81.85 299.98 103.31 331.64 113.31C349.61 118.99 368.44 124.81 387.91 130.52C346.62 135.56 309.57 145.12 279.65 157.91V157.91Z" fill="#322A2E"/>
<path d="M363.19 197.46V198.76C363.81 198.03 364.38 197.52 364.88 197.25C365.38 196.97 365.97 196.84 366.63 196.84C367.19 196.84 367.74 197 368.29 197.33C368.84 197.66 369.37 198.15 369.9 198.81C370.56 198.15 371.23 197.66 371.91 197.34C372.59 197.02 373.28 196.86 373.99 196.86C375.41 196.86 376.56 197.32 377.45 198.23C378.62 199.43 379.2 200.99 379.2 202.94V213.23C380 213.23 380.59 213.45 380.97 213.88C381.36 214.31 381.55 214.87 381.55 215.54C381.55 216.21 381.36 216.76 380.97 217.19C380.58 217.62 379.93 217.83 379.01 217.83H375.37V203.33C375.37 202.63 375.26 202.14 375.05 201.87C374.84 201.6 374.51 201.47 374.08 201.47C373.65 201.47 373.26 201.6 372.9 201.87C372.44 202.24 371.88 202.95 371.22 203.98V213.23C372.02 213.23 372.61 213.45 372.99 213.88C373.38 214.31 373.57 214.87 373.57 215.54C373.57 216.21 373.38 216.76 372.99 217.19C372.6 217.62 371.95 217.83 371.03 217.83H367.39V203.33C367.39 202.64 367.28 202.16 367.06 201.88C366.84 201.6 366.52 201.47 366.08 201.47C365.64 201.47 365.19 201.64 364.75 201.97C364.31 202.31 363.79 202.97 363.18 203.98V213.23C363.98 213.23 364.57 213.45 364.96 213.88C365.35 214.31 365.55 214.87 365.55 215.54C365.55 216.21 365.35 216.76 364.96 217.19C364.57 217.62 363.91 217.83 362.99 217.83H359.53C358.61 217.83 357.95 217.62 357.56 217.19C357.17 216.76 356.97 216.21 356.97 215.52C356.97 214.83 357.16 214.3 357.55 213.87C357.94 213.44 358.53 213.23 359.34 213.23V202.07C358.53 202.07 357.93 201.85 357.55 201.42C357.16 200.99 356.97 200.43 356.97 199.76C356.97 199.09 357.17 198.54 357.56 198.11C357.95 197.68 358.61 197.47 359.53 197.47H363.17L363.19 197.46Z" fill="#F8F5EA"/>
<path d="M397.03 217.81V216.73C396.07 217.34 395.01 217.8 393.86 218.11C392.7 218.42 391.65 218.57 390.7 218.57C388.65 218.57 386.98 217.92 385.7 216.61C384.42 215.3 383.78 213.86 383.78 212.27C383.78 210.34 384.6 208.55 386.24 206.9C387.88 205.25 390.14 204.42 393.03 204.42C394.19 204.42 395.53 204.57 397.04 204.87V203.77C397.04 203.08 396.79 202.52 396.3 202.09C395.81 201.66 394.87 201.44 393.49 201.44C392.36 201.44 390.89 201.71 389.08 202.25C388.41 202.44 387.88 202.54 387.51 202.54C387 202.54 386.57 202.32 386.21 201.88C385.86 201.44 385.68 200.88 385.68 200.19C385.68 199.8 385.74 199.47 385.87 199.18C385.99 198.9 386.17 198.67 386.39 198.5C386.61 198.33 387.08 198.12 387.79 197.88C388.74 197.57 389.7 197.32 390.68 197.13C391.66 196.94 392.55 196.85 393.35 196.85C395.73 196.85 397.57 197.47 398.89 198.7C400.21 199.93 400.86 201.62 400.86 203.75V213.21H401.51C402.43 213.21 403.09 213.42 403.48 213.85C403.87 214.28 404.07 214.83 404.07 215.52C404.07 216.21 403.87 216.74 403.48 217.17C403.09 217.6 402.43 217.81 401.51 217.81H397.03V217.81ZM397.03 209.59C395.5 209.23 394.09 209.05 392.79 209.05C391.23 209.05 389.9 209.51 388.78 210.42C388.08 211 387.73 211.59 387.73 212.19C387.73 212.62 387.9 212.97 388.23 213.24C388.85 213.73 389.7 213.98 390.79 213.98C391.71 213.98 392.75 213.76 393.92 213.33C395.08 212.9 396.12 212.31 397.03 211.56V209.59V209.59Z" fill="#F8F5EA"/>
<path d="M420.35 202.06H412.55C411.63 202.06 410.97 201.85 410.58 201.42C410.19 200.99 409.99 200.44 409.99 199.75C409.99 199.06 410.19 198.53 410.58 198.1C410.97 197.67 411.63 197.46 412.55 197.46H424.18V218.77C424.18 220.38 423.9 221.79 423.33 222.99C422.76 224.19 421.9 225.23 420.73 226.09C419.56 226.96 418.24 227.39 416.77 227.39H412.44C411.52 227.39 410.86 227.18 410.47 226.75C410.08 226.32 409.88 225.78 409.88 225.1C409.88 224.42 410.08 223.86 410.47 223.43C410.86 223 411.52 222.79 412.44 222.79H416.66C417.83 222.79 418.74 222.41 419.39 221.65C420.04 220.89 420.36 219.92 420.36 218.76V202.04L420.35 202.06ZM421.92 188.75V193.61H417.34V188.75H421.92Z" fill="#F8F5EA"/>
<path d="M452.48 208.02C452.48 209.78 452.07 211.49 451.26 213.14C450.44 214.79 449.23 216.11 447.62 217.08C446.01 218.06 444.32 218.55 442.57 218.55C440.82 218.55 439.16 218.07 437.57 217.1C435.98 216.14 434.76 214.83 433.93 213.17C433.1 211.51 432.68 209.78 432.68 207.97C432.68 206.16 433.1 204.33 433.95 202.56C434.8 200.79 436.01 199.4 437.6 198.38C439.19 197.36 440.85 196.86 442.58 196.86C444.31 196.86 446 197.38 447.61 198.42C449.22 199.46 450.44 200.86 451.26 202.61C452.08 204.36 452.49 206.17 452.49 208.02H452.48ZM448.65 208.04C448.65 206.56 448.21 205.2 447.32 203.96C446.11 202.29 444.53 201.45 442.56 201.45C440.83 201.45 439.39 202.11 438.23 203.44C437.07 204.77 436.49 206.31 436.49 208.06C436.49 209.49 437.07 210.84 438.25 212.08C439.42 213.33 440.86 213.95 442.56 213.95C444.26 213.95 445.72 213.33 446.89 212.08C448.06 210.83 448.64 209.48 448.64 208.04H448.65Z" fill="#F8F5EA"/>
<path d="M466.23 197.46V200.33C467.84 198.94 469.1 198.01 470.03 197.55C470.96 197.09 471.82 196.86 472.63 196.86C473.87 196.86 475.08 197.41 476.25 198.52C477.05 199.27 477.45 200.03 477.45 200.81C477.45 201.47 477.26 202.02 476.88 202.48C476.5 202.94 476.04 203.16 475.51 203.16C475.04 203.16 474.54 202.88 474.02 202.31C473.5 201.74 473.03 201.46 472.62 201.46C472.08 201.46 471.29 201.86 470.22 202.67C469.15 203.48 467.83 204.69 466.23 206.3V213.22H471.68C472.6 213.22 473.26 213.43 473.65 213.86C474.04 214.29 474.24 214.84 474.24 215.53C474.24 216.22 474.04 216.75 473.65 217.18C473.26 217.61 472.6 217.82 471.68 217.82H460.12C459.2 217.82 458.54 217.61 458.15 217.18C457.76 216.75 457.56 216.2 457.56 215.51C457.56 214.82 457.76 214.29 458.15 213.86C458.54 213.43 459.2 213.22 460.12 213.22H462.4V202.06H461.02C460.1 202.06 459.44 201.85 459.05 201.42C458.66 200.99 458.46 200.44 458.46 199.75C458.46 199.06 458.66 198.53 459.05 198.1C459.44 197.67 460.1 197.46 461.02 197.46H466.23V197.46Z" fill="#F8F5EA"/>
<path d="M487.62 197.46V199.01C488.32 198.29 489.09 197.76 489.93 197.4C490.77 197.04 491.68 196.86 492.67 196.86C494.94 196.86 496.73 197.7 498.05 199.39C499.1 200.73 499.62 202.5 499.62 204.68V213.22C500.43 213.22 501.03 213.43 501.41 213.86C501.79 214.29 501.99 214.84 501.99 215.53C501.99 216.22 501.79 216.75 501.4 217.18C501.01 217.61 500.35 217.82 499.43 217.82H495.98C495.06 217.82 494.4 217.61 494.01 217.18C493.62 216.75 493.42 216.2 493.42 215.51C493.42 214.82 493.61 214.29 494 213.86C494.39 213.43 494.98 213.22 495.79 213.22V204.55C495.79 203.55 495.57 202.82 495.12 202.35C494.54 201.75 493.66 201.45 492.49 201.45C491.61 201.45 490.83 201.66 490.16 202.07C489.49 202.48 488.65 203.35 487.63 204.68V213.22C488.61 213.22 489.25 213.33 489.54 213.56C490.15 214.01 490.46 214.67 490.46 215.53C490.46 216.2 490.26 216.75 489.87 217.18C489.48 217.61 488.82 217.82 487.9 217.82H483.55C482.63 217.82 481.97 217.61 481.58 217.18C481.19 216.75 480.99 216.2 480.99 215.51C480.99 214.67 481.29 214.02 481.89 213.56C482.19 213.34 482.83 213.22 483.81 213.22V202.06C483 202.06 482.4 201.84 482.02 201.41C481.63 200.98 481.44 200.42 481.44 199.75C481.44 199.08 481.64 198.53 482.03 198.1C482.42 197.67 483.08 197.46 484 197.46H487.64H487.62Z" fill="#F8F5EA"/>
<path d="M519.42 217.81V216.73C518.46 217.34 517.4 217.8 516.25 218.11C515.09 218.42 514.04 218.57 513.09 218.57C511.04 218.57 509.37 217.92 508.09 216.61C506.81 215.3 506.17 213.86 506.17 212.27C506.17 210.34 506.99 208.55 508.63 206.9C510.27 205.25 512.53 204.42 515.42 204.42C516.58 204.42 517.92 204.57 519.43 204.87V203.77C519.43 203.08 519.18 202.52 518.69 202.09C518.2 201.66 517.26 201.44 515.88 201.44C514.75 201.44 513.28 201.71 511.47 202.25C510.8 202.44 510.27 202.54 509.9 202.54C509.39 202.54 508.96 202.32 508.6 201.88C508.25 201.44 508.07 200.88 508.07 200.19C508.07 199.8 508.13 199.47 508.26 199.18C508.38 198.9 508.56 198.67 508.78 198.5C509 198.33 509.47 198.12 510.18 197.88C511.13 197.57 512.09 197.32 513.07 197.13C514.05 196.94 514.94 196.85 515.74 196.85C518.12 196.85 519.96 197.47 521.28 198.7C522.6 199.93 523.25 201.62 523.25 203.75V213.21H523.9C524.82 213.21 525.48 213.42 525.87 213.85C526.26 214.28 526.46 214.83 526.46 215.52C526.46 216.21 526.26 216.74 525.87 217.17C525.48 217.6 524.82 217.81 523.9 217.81H519.42V217.81ZM519.42 209.59C517.89 209.23 516.48 209.05 515.18 209.05C513.62 209.05 512.29 209.51 511.17 210.42C510.47 211 510.12 211.59 510.12 212.19C510.12 212.62 510.29 212.97 510.62 213.24C511.24 213.73 512.09 213.98 513.18 213.98C514.1 213.98 515.14 213.76 516.31 213.33C517.47 212.9 518.51 212.31 519.42 211.56V209.59V209.59Z" fill="#F8F5EA"/>
<path d="M544.59 202.84C543.97 202.38 543.31 202.03 542.63 201.8C541.94 201.57 541.23 201.45 540.48 201.45C539 201.45 537.82 201.74 536.95 202.32C536.56 202.57 536.37 202.85 536.37 203.15C536.37 203.49 536.63 203.83 537.15 204.16C537.55 204.4 538.44 204.63 539.82 204.85C542.36 205.27 544.13 205.69 545.12 206.1C546.43 206.65 547.44 207.47 548.15 208.56C548.86 209.65 549.21 210.8 549.21 212.01C549.21 213.65 548.61 215.03 547.4 216.13C545.67 217.73 543.42 218.53 540.66 218.53C539.55 218.53 538.53 218.41 537.59 218.18C536.65 217.95 535.79 217.61 535 217.16C534.81 217.35 534.61 217.5 534.4 217.61C534.19 217.72 533.97 217.77 533.75 217.77C533.15 217.77 532.68 217.53 532.32 217.06C531.97 216.59 531.79 215.8 531.79 214.7V213.15C531.79 212.04 531.97 211.26 532.32 210.79C532.68 210.32 533.14 210.08 533.71 210.08C534.17 210.08 534.56 210.23 534.87 210.54C535.18 210.85 535.42 211.37 535.6 212.12C536.18 212.72 536.89 213.17 537.71 213.48C538.53 213.79 539.48 213.94 540.55 213.94C542.31 213.94 543.67 213.61 544.64 212.95C545.1 212.62 545.33 212.28 545.33 211.92C545.33 211.32 545 210.83 544.34 210.44C543.68 210.05 542.32 209.72 540.25 209.45C537.17 209.06 535.12 208.31 534.09 207.21C533.06 206.12 532.54 204.78 532.54 203.18C532.54 201.58 533.12 200.17 534.28 199.08C535.85 197.59 537.9 196.84 540.44 196.84C541.32 196.84 542.17 196.94 542.99 197.14C543.81 197.34 544.59 197.65 545.33 198.07C545.57 197.86 545.79 197.7 545.99 197.6C546.2 197.5 546.39 197.44 546.56 197.44C547.08 197.44 547.52 197.68 547.87 198.15C548.22 198.62 548.39 199.41 548.39 200.51V201.63C548.39 202.63 548.29 203.31 548.09 203.67C547.69 204.36 547.15 204.7 546.47 204.7C546.01 204.7 545.6 204.53 545.26 204.18C544.91 203.84 544.69 203.38 544.59 202.81V202.84Z" fill="#F8F5EA"/>
<path d="M254.12 231.49V241.8C255.05 241.07 256 240.52 256.97 240.15C257.93 239.78 258.91 239.6 259.89 239.6C262.54 239.6 264.79 240.7 266.63 242.89C268.47 245.09 269.39 247.74 269.39 250.84C269.39 253.94 268.51 256.3 266.76 258.29C265.01 260.28 262.69 261.28 259.81 261.28C258.79 261.28 257.81 261.12 256.86 260.81C255.91 260.5 255 260.03 254.11 259.42V260.54H249.63C248.71 260.54 248.05 260.33 247.66 259.9C247.27 259.47 247.07 258.92 247.07 258.23C247.07 257.54 247.27 257.01 247.67 256.58C248.07 256.15 248.72 255.94 249.63 255.94H250.28V236.06H249.63C248.71 236.06 248.05 235.85 247.66 235.42C247.27 234.99 247.07 234.44 247.07 233.75C247.07 233.06 247.27 232.53 247.66 232.1C248.05 231.67 248.71 231.46 249.63 231.46H254.11L254.12 231.49ZM265.57 250.99C265.57 249.09 265.02 247.49 263.91 246.17C262.8 244.86 261.45 244.2 259.84 244.2C258.23 244.2 256.9 244.86 255.79 246.17C254.68 247.48 254.13 249.07 254.13 250.92C254.13 252.61 254.63 253.99 255.62 255.08C256.61 256.17 258.02 256.7 259.84 256.7C261.66 256.7 263.07 256.16 264.07 255.08C265.07 254 265.57 252.63 265.57 250.99V250.99Z" fill="#F8F5EA"/>
<path d="M293.37 250.76C293.37 252.52 292.96 254.23 292.15 255.88C291.33 257.53 290.12 258.85 288.51 259.82C286.9 260.8 285.21 261.29 283.46 261.29C281.71 261.29 280.05 260.81 278.46 259.84C276.87 258.88 275.65 257.57 274.82 255.91C273.99 254.25 273.57 252.52 273.57 250.71C273.57 248.9 273.99 247.07 274.84 245.3C275.69 243.53 276.9 242.14 278.49 241.12C280.08 240.1 281.74 239.6 283.47 239.6C285.2 239.6 286.89 240.12 288.5 241.16C290.11 242.2 291.33 243.6 292.15 245.35C292.97 247.1 293.38 248.91 293.38 250.76H293.37ZM289.54 250.78C289.54 249.3 289.1 247.94 288.21 246.7C287 245.03 285.42 244.19 283.45 244.19C281.72 244.19 280.28 244.85 279.12 246.18C277.96 247.51 277.38 249.05 277.38 250.8C277.38 252.23 277.96 253.58 279.14 254.82C280.31 256.07 281.75 256.69 283.45 256.69C285.15 256.69 286.61 256.07 287.78 254.82C288.95 253.57 289.53 252.22 289.53 250.78H289.54Z" fill="#F8F5EA"/>
<path d="M304.76 252.91V260.55H300.28C299.36 260.55 298.7 260.34 298.31 259.91C297.92 259.48 297.72 258.93 297.72 258.24C297.72 257.55 297.92 257.02 298.32 256.59C298.72 256.16 299.37 255.95 300.28 255.95H300.93V236.07H300.28C299.36 236.07 298.7 235.86 298.31 235.43C297.92 235 297.72 234.45 297.72 233.76C297.72 233.07 297.92 232.54 298.31 232.11C298.7 231.68 299.36 231.47 300.28 231.47H304.76V246.95L307.75 244.06C307.44 243.42 307.28 242.89 307.28 242.49C307.28 241.8 307.47 241.25 307.86 240.82C308.25 240.39 308.9 240.18 309.82 240.18H314.19C315.11 240.18 315.77 240.39 316.16 240.82C316.55 241.25 316.75 241.8 316.75 242.49C316.75 243.18 316.55 243.71 316.16 244.14C315.77 244.57 315.11 244.78 314.19 244.78H313.13L308.48 249.31L314.74 255.94H315.86C316.78 255.94 317.44 256.15 317.83 256.58C318.22 257.01 318.42 257.56 318.42 258.25C318.42 258.94 318.22 259.47 317.83 259.9C317.44 260.33 316.78 260.54 315.86 260.54H311.45C310.53 260.54 309.87 260.33 309.48 259.9C309.09 259.47 308.89 258.92 308.89 258.23C308.89 257.65 309.1 257.07 309.52 256.5L305.47 252.2L304.76 252.89V252.91Z" fill="#F8F5EA"/>
<path d="M328.44 231.49V241.28C329.24 240.71 330.04 240.29 330.86 240.01C331.68 239.73 332.5 239.6 333.33 239.6C334.65 239.6 335.83 239.87 336.86 240.41C337.89 240.95 338.75 241.8 339.43 242.95C340.11 244.11 340.45 245.57 340.45 247.33V255.96C341.42 255.96 342.06 256.07 342.35 256.3C342.95 256.76 343.25 257.42 343.25 258.27C343.25 258.94 343.06 259.49 342.67 259.92C342.28 260.35 341.63 260.56 340.71 260.56H336.34C335.43 260.56 334.78 260.35 334.39 259.92C334 259.49 333.8 258.94 333.8 258.25C333.8 257.41 334.1 256.76 334.7 256.3C335.01 256.06 335.65 255.95 336.61 255.96V247.65C336.61 246.47 336.39 245.64 335.94 245.16C335.36 244.52 334.49 244.2 333.35 244.2C332.5 244.2 331.75 244.4 331.1 244.79C330.45 245.19 329.56 246.04 328.46 247.36V255.96C329.44 255.96 330.08 256.07 330.36 256.3C330.97 256.76 331.28 257.42 331.28 258.27C331.28 258.94 331.08 259.49 330.69 259.92C330.3 260.35 329.64 260.56 328.72 260.56H324.37C323.45 260.56 322.79 260.35 322.4 259.92C322.01 259.49 321.81 258.94 321.81 258.25C321.81 257.41 322.11 256.76 322.73 256.3C323.03 256.06 323.66 255.95 324.63 255.96V236.08H323.98C323.06 236.08 322.4 235.87 322.01 235.44C321.62 235.01 321.42 234.46 321.42 233.77C321.42 233.08 321.62 232.55 322.01 232.12C322.4 231.69 323.06 231.48 323.98 231.48H328.46L328.44 231.49Z" fill="#F8F5EA"/>
<path d="M360.31 260.55V259.47C359.35 260.08 358.29 260.54 357.14 260.85C355.98 261.16 354.93 261.31 353.98 261.31C351.93 261.31 350.26 260.66 348.98 259.35C347.7 258.04 347.06 256.6 347.06 255.01C347.06 253.08 347.88 251.29 349.52 249.64C351.16 247.99 353.42 247.16 356.31 247.16C357.47 247.16 358.81 247.31 360.32 247.61V246.51C360.32 245.82 360.07 245.26 359.58 244.83C359.09 244.4 358.15 244.18 356.77 244.18C355.64 244.18 354.17 244.45 352.36 244.99C351.69 245.18 351.16 245.28 350.79 245.28C350.28 245.28 349.85 245.06 349.49 244.62C349.14 244.18 348.96 243.62 348.96 242.93C348.96 242.54 349.02 242.21 349.15 241.92C349.27 241.64 349.45 241.41 349.67 241.24C349.89 241.07 350.36 240.86 351.07 240.62C352.02 240.31 352.98 240.06 353.96 239.87C354.94 239.68 355.83 239.59 356.63 239.59C359.01 239.59 360.85 240.21 362.17 241.44C363.49 242.67 364.14 244.36 364.14 246.49V255.95H364.79C365.71 255.95 366.37 256.16 366.76 256.59C367.15 257.02 367.35 257.57 367.35 258.26C367.35 258.95 367.15 259.48 366.76 259.91C366.37 260.34 365.71 260.55 364.79 260.55H360.31V260.55ZM360.31 252.33C358.78 251.97 357.37 251.79 356.07 251.79C354.51 251.79 353.18 252.25 352.06 253.16C351.36 253.74 351.01 254.33 351.01 254.93C351.01 255.36 351.18 255.71 351.51 255.98C352.13 256.47 352.98 256.72 354.07 256.72C354.99 256.72 356.03 256.5 357.2 256.07C358.36 255.64 359.4 255.05 360.31 254.3V252.33V252.33Z" fill="#F8F5EA"/>
<path d="M377.47 240.2V241.75C378.17 241.03 378.94 240.5 379.78 240.14C380.62 239.78 381.53 239.6 382.52 239.6C384.79 239.6 386.58 240.44 387.9 242.13C388.95 243.47 389.47 245.24 389.47 247.42V255.96C390.28 255.96 390.88 256.17 391.26 256.6C391.64 257.03 391.84 257.58 391.84 258.27C391.84 258.96 391.64 259.49 391.25 259.92C390.86 260.35 390.2 260.56 389.28 260.56H385.83C384.91 260.56 384.25 260.35 383.86 259.92C383.47 259.49 383.27 258.94 383.27 258.25C383.27 257.56 383.46 257.03 383.85 256.6C384.24 256.17 384.83 255.96 385.64 255.96V247.29C385.64 246.29 385.42 245.56 384.97 245.09C384.39 244.49 383.51 244.19 382.34 244.19C381.46 244.19 380.68 244.4 380.01 244.81C379.34 245.22 378.5 246.09 377.48 247.42V255.96C378.46 255.96 379.1 256.07 379.39 256.3C380 256.75 380.31 257.41 380.31 258.27C380.31 258.94 380.11 259.49 379.72 259.92C379.33 260.35 378.67 260.56 377.75 260.56H373.4C372.48 260.56 371.82 260.35 371.43 259.92C371.04 259.49 370.84 258.94 370.84 258.25C370.84 257.41 371.14 256.76 371.74 256.3C372.04 256.08 372.68 255.96 373.66 255.96V244.8C372.85 244.8 372.25 244.58 371.87 244.15C371.48 243.72 371.29 243.16 371.29 242.49C371.29 241.82 371.49 241.27 371.88 240.84C372.27 240.41 372.93 240.2 373.85 240.2H377.49H377.47Z" fill="#F8F5EA"/>
<path d="M414.61 231.49V255.96H415.26C416.17 255.96 416.82 256.17 417.22 256.6C417.62 257.03 417.82 257.58 417.82 258.27C417.82 258.96 417.62 259.49 417.23 259.92C416.84 260.35 416.18 260.56 415.26 260.56H410.78V259.44C409.91 260.05 409 260.52 408.04 260.83C407.09 261.14 406.1 261.3 405.08 261.3C402.2 261.3 399.89 260.3 398.13 258.31C396.37 256.32 395.5 253.83 395.5 250.86C395.5 247.89 396.42 245.1 398.26 242.91C400.1 240.71 402.35 239.62 405 239.62C406 239.62 406.97 239.8 407.93 240.17C408.89 240.54 409.84 241.09 410.77 241.82V236.11H410.12C409.2 236.11 408.54 235.9 408.15 235.47C407.76 235.04 407.56 234.5 407.56 233.82C407.56 233.14 407.76 232.58 408.15 232.15C408.54 231.72 409.2 231.51 410.12 231.51H414.6L414.61 231.49ZM410.78 250.99C410.78 249.09 410.23 247.49 409.12 246.17C408.01 244.86 406.66 244.2 405.05 244.2C403.44 244.2 402.11 244.86 401 246.17C399.89 247.48 399.34 249.07 399.34 250.92C399.34 252.61 399.84 253.99 400.83 255.08C401.82 256.17 403.23 256.7 405.05 256.7C406.87 256.7 408.26 256.16 409.27 255.08C410.28 254 410.78 252.63 410.78 250.99V250.99Z" fill="#F8F5EA"/>
<path d="M439.91 252.71H424.21C424.61 253.91 425.31 254.87 426.33 255.6C427.35 256.33 428.72 256.7 430.45 256.7C431.87 256.7 433.76 256.33 436.11 255.6C437.08 255.3 437.75 255.15 438.13 255.15C438.64 255.15 439.07 255.37 439.42 255.8C439.77 256.23 439.94 256.78 439.94 257.44C439.94 258.04 439.75 258.55 439.38 258.96C438.88 259.51 437.67 260.04 435.74 260.54C433.81 261.04 431.95 261.29 430.18 261.29C427.12 261.29 424.67 260.25 422.83 258.18C420.99 256.1 420.08 253.55 420.08 250.52C420.08 247.29 421.07 244.67 423.06 242.64C425.05 240.62 427.33 239.6 429.92 239.6C431.48 239.6 432.9 239.93 434.21 240.59C435.51 241.25 436.48 241.96 437.11 242.72C438.01 243.83 438.75 245.19 439.33 246.82C439.73 247.96 439.93 249.27 439.93 250.76V252.71H439.91ZM435.67 248.12C435.09 246.81 434.32 245.82 433.37 245.17C432.42 244.52 431.3 244.2 429.99 244.2C428.68 244.2 427.57 244.52 426.63 245.17C425.68 245.82 424.91 246.8 424.31 248.12H435.66H435.67Z" fill="#F8F5EA"/>
<path d="M456.69 231.49V255.96H461.28C462.2 255.96 462.86 256.17 463.25 256.6C463.64 257.03 463.84 257.58 463.84 258.27C463.84 258.96 463.64 259.49 463.25 259.92C462.86 260.35 462.2 260.56 461.28 260.56H448.26C447.34 260.56 446.68 260.35 446.29 259.92C445.9 259.49 445.7 258.94 445.7 258.25C445.7 257.56 445.9 257.03 446.29 256.6C446.68 256.17 447.34 255.96 448.26 255.96H452.85V236.08H449.77C448.86 236.08 448.21 235.87 447.81 235.44C447.41 235.01 447.21 234.46 447.21 233.77C447.21 233.08 447.41 232.55 447.8 232.12C448.19 231.69 448.85 231.48 449.77 231.48H456.68L456.69 231.49Z" fill="#F8F5EA"/>
<path d="M507.72 251.43L508.65 247.53H510.61C511.41 247.53 511.95 247.64 512.25 247.87C512.85 248.33 513.15 249 513.15 249.86C513.15 250.49 512.99 251.01 512.67 251.44C512.35 251.87 511.97 252.09 511.52 252.12C511.21 253.72 510.82 255 510.34 255.95C511.35 255.95 512 256.06 512.28 256.29C512.89 256.74 513.2 257.4 513.2 258.26C513.2 258.93 513 259.48 512.61 259.91C512.22 260.34 511.56 260.55 510.64 260.55H508.36L507.91 259.83C507.35 260.31 506.81 260.64 506.3 260.82C505.54 261.09 504.62 261.22 503.54 261.22C501.29 261.22 499.54 260.53 498.3 259.15C497.06 257.77 496.44 256.02 496.44 253.9C496.44 252.45 496.75 251.07 497.36 249.74C497.98 248.42 498.92 247.31 500.19 246.41C499.64 245.32 499.28 244.47 499.12 243.87C498.96 243.27 498.87 242.62 498.87 241.93C498.87 240.08 499.45 238.45 500.62 237.06C501.79 235.66 503.18 234.97 504.78 234.97C505.2 234.97 505.64 235.03 506.09 235.16C506.54 235.29 507 235.48 507.47 235.75C507.92 235.51 508.25 235.39 508.48 235.39C509 235.39 509.45 235.62 509.82 236.07C510.19 236.53 510.38 237.07 510.38 237.69C510.38 238.21 510.28 238.64 510.07 238.98C509.86 239.32 509.45 239.69 508.83 240.09L507.22 241.12C506.61 240.46 506.12 240.02 505.75 239.8C505.46 239.64 505.13 239.55 504.76 239.55C504.18 239.55 503.68 239.79 503.29 240.26C502.89 240.73 502.69 241.27 502.69 241.88C502.69 242.4 503.06 243.31 503.79 244.59L507.69 251.42L507.72 251.43ZM502.42 250.26C501 251.05 500.29 252.25 500.29 253.87C500.29 254.72 500.53 255.39 501.02 255.89C501.51 256.38 502.35 256.63 503.56 256.63C504.33 256.63 505.04 256.41 505.69 255.96L502.42 250.27V250.26Z" fill="#F8F5EA"/>
<path d="M549.55 252.91V260.55H545.07C544.15 260.55 543.49 260.34 543.1 259.91C542.71 259.48 542.51 258.93 542.51 258.24C542.51 257.55 542.71 257.02 543.11 256.59C543.51 256.16 544.16 255.95 545.07 255.95H545.72V236.07H545.07C544.15 236.07 543.49 235.86 543.1 235.43C542.71 235 542.51 234.45 542.51 233.76C542.51 233.07 542.71 232.54 543.1 232.11C543.49 231.68 544.15 231.47 545.07 231.47H549.55V246.95L552.54 244.06C552.23 243.42 552.07 242.89 552.07 242.49C552.07 241.8 552.26 241.25 552.65 240.82C553.04 240.39 553.69 240.18 554.61 240.18H558.98C559.9 240.18 560.56 240.39 560.95 240.82C561.34 241.25 561.54 241.8 561.54 242.49C561.54 243.18 561.34 243.71 560.95 244.14C560.56 244.57 559.9 244.78 558.98 244.78H557.92L553.27 249.31L559.53 255.94H560.65C561.57 255.94 562.23 256.15 562.62 256.58C563.01 257.01 563.21 257.56 563.21 258.25C563.21 258.94 563.01 259.47 562.62 259.9C562.23 260.33 561.57 260.54 560.65 260.54H556.24C555.32 260.54 554.66 260.33 554.27 259.9C553.88 259.47 553.68 258.92 553.68 258.23C553.68 257.65 553.89 257.07 554.31 256.5L550.26 252.2L549.55 252.89V252.91Z" fill="#F8F5EA"/>
<path d="M580.62 260.55V259.47C579.66 260.08 578.6 260.54 577.45 260.85C576.29 261.16 575.24 261.31 574.29 261.31C572.24 261.31 570.57 260.66 569.29 259.35C568.01 258.04 567.37 256.6 567.37 255.01C567.37 253.08 568.19 251.29 569.83 249.64C571.47 247.99 573.73 247.16 576.62 247.16C577.78 247.16 579.12 247.31 580.63 247.61V246.51C580.63 245.82 580.38 245.26 579.89 244.83C579.4 244.4 578.46 244.18 577.08 244.18C575.95 244.18 574.48 244.45 572.67 244.99C572 245.18 571.47 245.28 571.1 245.28C570.59 245.28 570.16 245.06 569.8 244.62C569.45 244.18 569.27 243.62 569.27 242.93C569.27 242.54 569.33 242.21 569.46 241.92C569.58 241.64 569.76 241.41 569.98 241.24C570.2 241.07 570.67 240.86 571.38 240.62C572.33 240.31 573.29 240.06 574.27 239.87C575.25 239.68 576.14 239.59 576.94 239.59C579.32 239.59 581.16 240.21 582.48 241.44C583.8 242.67 584.45 244.36 584.45 246.49V255.95H585.1C586.02 255.95 586.68 256.16 587.07 256.59C587.46 257.02 587.66 257.57 587.66 258.26C587.66 258.95 587.46 259.48 587.07 259.91C586.68 260.34 586.02 260.55 585.1 260.55H580.62V260.55ZM580.62 252.33C579.09 251.97 577.68 251.79 576.38 251.79C574.82 251.79 573.49 252.25 572.37 253.16C571.67 253.74 571.32 254.33 571.32 254.93C571.32 255.36 571.49 255.71 571.82 255.98C572.44 256.47 573.29 256.72 574.38 256.72C575.3 256.72 576.34 256.5 577.51 256.07C578.67 255.64 579.71 255.05 580.62 254.3V252.33V252.33Z" fill="#F8F5EA"/>
<path d="M601.62 244.8V255.96H607.07C607.99 255.96 608.65 256.17 609.04 256.6C609.43 257.03 609.63 257.58 609.63 258.27C609.63 258.96 609.43 259.49 609.04 259.92C608.65 260.35 607.99 260.56 607.07 260.56H595.51C594.59 260.56 593.93 260.35 593.54 259.92C593.15 259.49 592.95 258.94 592.95 258.25C592.95 257.56 593.15 257.03 593.54 256.6C593.93 256.17 594.59 255.96 595.51 255.96H597.79V244.8H595.96C595.04 244.8 594.38 244.59 593.99 244.16C593.6 243.73 593.4 243.18 593.4 242.49C593.4 241.8 593.6 241.27 593.99 240.84C594.38 240.41 595.04 240.2 595.96 240.2H597.79V238.45C597.79 236.45 598.42 234.79 599.67 233.46C600.92 232.14 602.74 231.48 605.11 231.48C606.17 231.48 607.39 231.6 608.78 231.83C610.17 232.06 611.06 232.39 611.45 232.8C611.84 233.22 612.04 233.76 612.04 234.41C612.04 235.11 611.87 235.68 611.52 236.12C611.17 236.56 610.74 236.78 610.23 236.78C609.99 236.78 609.64 236.73 609.17 236.62C607.59 236.25 606.19 236.06 604.97 236.06C603.75 236.06 602.83 236.29 602.35 236.74C601.87 237.2 601.63 237.76 601.63 238.43V240.18H607.53C608.45 240.18 609.11 240.39 609.5 240.82C609.89 241.25 610.09 241.8 610.09 242.49C610.09 243.18 609.89 243.71 609.5 244.14C609.11 244.57 608.45 244.78 607.53 244.78H601.63L601.62 244.8Z" fill="#F8F5EA"/>
<path d="M626.1 244.8V255.96H631.55C632.47 255.96 633.13 256.17 633.52 256.6C633.91 257.03 634.11 257.58 634.11 258.27C634.11 258.96 633.91 259.49 633.52 259.92C633.13 260.35 632.47 260.56 631.55 260.56H619.99C619.07 260.56 618.41 260.35 618.02 259.92C617.63 259.49 617.43 258.94 617.43 258.25C617.43 257.56 617.63 257.03 618.02 256.6C618.41 256.17 619.07 255.96 619.99 255.96H622.27V244.8H620.44C619.52 244.8 618.86 244.59 618.47 244.16C618.08 243.73 617.88 243.18 617.88 242.49C617.88 241.8 618.08 241.27 618.47 240.84C618.86 240.41 619.52 240.2 620.44 240.2H622.27V238.45C622.27 236.45 622.9 234.79 624.15 233.46C625.4 232.14 627.22 231.48 629.59 231.48C630.65 231.48 631.87 231.6 633.26 231.83C634.65 232.06 635.54 232.39 635.93 232.8C636.32 233.22 636.52 233.76 636.52 234.41C636.52 235.11 636.35 235.68 636 236.12C635.65 236.56 635.22 236.78 634.71 236.78C634.47 236.78 634.12 236.73 633.65 236.62C632.07 236.25 630.67 236.06 629.45 236.06C628.23 236.06 627.31 236.29 626.83 236.74C626.35 237.2 626.11 237.76 626.11 238.43V240.18H632.01C632.93 240.18 633.59 240.39 633.98 240.82C634.37 241.25 634.57 241.8 634.57 242.49C634.57 243.18 634.37 243.71 633.98 244.14C633.59 244.57 632.93 244.78 632.01 244.78H626.11L626.1 244.8Z" fill="#F8F5EA"/>
<path d="M660.22 252.71H644.52C644.92 253.91 645.62 254.87 646.64 255.6C647.66 256.33 649.03 256.7 650.76 256.7C652.18 256.7 654.07 256.33 656.42 255.6C657.39 255.3 658.06 255.15 658.44 255.15C658.95 255.15 659.38 255.37 659.73 255.8C660.08 256.23 660.25 256.78 660.25 257.44C660.25 258.04 660.06 258.55 659.69 258.96C659.19 259.51 657.98 260.04 656.05 260.54C654.12 261.04 652.26 261.29 650.49 261.29C647.43 261.29 644.98 260.25 643.14 258.18C641.3 256.1 640.39 253.55 640.39 250.52C640.39 247.29 641.38 244.67 643.37 242.64C645.36 240.62 647.64 239.6 650.23 239.6C651.79 239.6 653.21 239.93 654.52 240.59C655.82 241.25 656.79 241.96 657.42 242.72C658.32 243.83 659.06 245.19 659.64 246.82C660.04 247.96 660.24 249.27 660.24 250.76V252.71H660.22ZM655.98 248.12C655.4 246.81 654.63 245.82 653.68 245.17C652.73 244.52 651.61 244.2 650.3 244.2C648.99 244.2 647.88 244.52 646.94 245.17C645.99 245.82 645.22 246.8 644.62 248.12H655.97H655.98Z" fill="#F8F5EA"/>
</svg>
