<svg width="800" height="400" viewBox="0 0 800 400" fill="none" xmlns="http://www.w3.org/2000/svg">
<path d="M728.21 82.57C704.75 82.57 690.18 95.01 690.18 115.02C690.18 137.95 705.03 141.37 713.89 141.37C722.25 141.37 726.97 138.1 729.47 135.34C733.37 131.04 734.96 124.91 734.19 117.13C733.89 114.04 731.14 111.79 728.05 112.08C724.96 112.38 722.7 115.14 723 118.23C723.3 121.31 723.23 125.48 721.13 127.78C719.72 129.33 717.28 130.12 713.89 130.12C706.41 130.12 701.43 127.56 701.43 115.01C701.43 101.54 711.19 93.81 728.21 93.81C739.75 93.81 755.08 97.21 755.08 126.5C755.08 153.37 725.7 169.41 676.48 169.41C668.85 169.41 661.24 169.25 653.64 168.95C579 165.99 505.61 149.01 433.91 128.74C432.03 128.21 430.15 127.67 428.27 127.13C380.65 113.53 333.46 98.44 286.81 81.85C253.92 70.16 221.02 57.67 186.51 52.41C152.01 47.17 115.19 49.73 84.74 66.77C34.59 94.86 14.62 165.33 55.91 209.95C71.15 226.42 91.82 235.49 114.12 235.49C179.66 235.49 193.42 201.76 193.42 173.47C193.42 153.64 185.04 138.34 169.17 129.22C154.77 120.93 138.26 120.04 131.84 120.04C110.17 120.04 93.2 136.1 93.2 156.61C93.2 168.51 102.97 179.27 115.95 181.64C126.29 183.54 139.58 179.59 145.96 162.91C147.02 160.15 145.86 156.94 143.2 155.67C140.17 154.24 136.65 155.7 135.51 158.76C132.14 167.69 125.74 172 117.96 170.58C110.5 169.22 104.44 162.95 104.44 156.61C104.44 140.17 118.54 131.29 131.82 131.29C147.94 131.29 163.28 138.92 170.44 153.8C175.13 163.53 176.19 175.56 174.39 186.15C172.76 195.64 168.34 204.79 161.25 211.31C150.98 220.78 136.34 223.91 122.37 224.46C112.44 224.85 102.38 224.12 92.89 221.2C64.95 212.62 49.69 183.81 54.02 155.54C62.12 102.71 118.95 74.34 167.89 75.12C184.49 75.37 201.87 78.67 216.26 87.3C230.45 95.81 241.38 110.92 247.76 125.99C253.77 140.19 254.9 154.81 255.08 170.04C222.15 188.9 202.55 212.57 202.55 238.25C202.55 299.97 315.73 350 455.32 350C594.91 350 708.1 299.97 708.1 238.25C708.1 217.17 694.89 197.44 671.95 180.63C673.46 180.64 674.96 180.65 676.47 180.65C705.86 180.65 728.72 175.34 744.42 164.88C758.55 155.47 766.32 141.83 766.32 126.49C766.32 98.16 752.79 82.56 728.2 82.56L728.21 82.57ZM279.65 157.91C276.8 129.54 253.32 100.5 244.38 91.3C235.2 81.85 299.98 103.31 331.64 113.31C349.61 118.99 368.44 124.81 387.91 130.52C346.62 135.56 309.57 145.12 279.65 157.91Z" fill="#F8F5EA"/>
<path d="M346.14 191.94V193.57C346.92 192.65 347.63 192.02 348.26 191.67C348.89 191.32 349.62 191.15 350.45 191.15C351.15 191.15 351.85 191.36 352.54 191.77C353.23 192.18 353.9 192.8 354.56 193.63C355.39 192.81 356.23 192.19 357.08 191.79C357.93 191.39 358.8 191.19 359.69 191.19C361.47 191.19 362.92 191.76 364.03 192.91C365.5 194.41 366.23 196.38 366.23 198.82V211.73C367.23 211.73 367.97 212 368.46 212.55C368.94 213.09 369.19 213.79 369.19 214.63C369.19 215.47 368.95 216.16 368.46 216.7C367.98 217.23 367.16 217.5 366 217.5H361.43V199.3C361.43 198.42 361.3 197.81 361.03 197.47C360.76 197.13 360.36 196.96 359.81 196.96C359.26 196.96 358.79 197.13 358.33 197.47C357.75 197.94 357.05 198.82 356.22 200.11V211.73C357.22 211.73 357.96 212 358.45 212.55C358.93 213.09 359.18 213.79 359.18 214.63C359.18 215.47 358.94 216.16 358.45 216.7C357.97 217.23 357.15 217.5 355.99 217.5H351.42V199.3C351.42 198.44 351.28 197.83 351.01 197.49C350.74 197.14 350.33 196.97 349.78 196.97C349.23 196.97 348.66 197.18 348.12 197.6C347.58 198.02 346.92 198.86 346.15 200.12V211.74C347.15 211.74 347.9 212.01 348.39 212.56C348.88 213.1 349.13 213.8 349.13 214.64C349.13 215.48 348.88 216.17 348.39 216.71C347.9 217.24 347.07 217.51 345.92 217.51H341.58C340.42 217.51 339.6 217.24 339.11 216.71C338.62 216.18 338.37 215.48 338.37 214.61C338.37 213.74 338.61 213.08 339.1 212.54C339.58 212.01 340.33 211.74 341.35 211.74V197.73C340.33 197.73 339.58 197.46 339.1 196.91C338.62 196.37 338.37 195.67 338.37 194.83C338.37 193.99 338.62 193.3 339.11 192.76C339.6 192.23 340.43 191.96 341.58 191.96H346.15L346.14 191.94Z" fill="#322A2E"/>
<path d="M388.61 217.47V216.12C387.41 216.89 386.08 217.47 384.63 217.85C383.18 218.23 381.86 218.43 380.67 218.43C378.09 218.43 376 217.61 374.39 215.97C372.78 214.33 371.98 212.52 371.98 210.53C371.98 208.11 373.01 205.87 375.06 203.79C377.11 201.71 379.95 200.68 383.58 200.68C385.03 200.68 386.71 200.87 388.62 201.24V199.86C388.62 199 388.31 198.3 387.69 197.75C387.07 197.21 385.9 196.93 384.16 196.93C382.74 196.93 380.89 197.27 378.63 197.94C377.79 198.18 377.13 198.31 376.66 198.31C376.02 198.31 375.48 198.03 375.03 197.48C374.58 196.93 374.36 196.22 374.36 195.36C374.36 194.87 374.44 194.45 374.59 194.09C374.75 193.73 374.97 193.45 375.25 193.23C375.53 193.01 376.12 192.76 377.01 192.46C378.2 192.07 379.41 191.75 380.64 191.52C381.87 191.29 382.99 191.17 383.99 191.17C386.97 191.17 389.29 191.94 390.94 193.49C392.59 195.04 393.41 197.15 393.41 199.83V211.7H394.23C395.39 211.7 396.21 211.97 396.7 212.5C397.19 213.03 397.44 213.73 397.44 214.6C397.44 215.47 397.19 216.13 396.7 216.67C396.21 217.2 395.38 217.47 394.23 217.47H388.61ZM388.61 207.15C386.69 206.7 384.91 206.47 383.29 206.47C381.34 206.47 379.66 207.04 378.25 208.19C377.37 208.92 376.94 209.66 376.94 210.41C376.94 210.95 377.15 211.39 377.57 211.73C378.35 212.35 379.42 212.66 380.78 212.66C381.94 212.66 383.24 212.39 384.71 211.84C386.17 211.3 387.47 210.56 388.61 209.62V207.14V207.15Z" fill="#322A2E"/>
<path d="M417.88 197.7H408.08C406.92 197.7 406.1 197.43 405.61 196.9C405.12 196.37 404.87 195.67 404.87 194.8C404.87 193.93 405.12 193.27 405.61 192.73C406.1 192.2 406.93 191.93 408.08 191.93H422.68V218.68C422.68 220.7 422.32 222.47 421.61 223.98C420.9 225.49 419.81 226.79 418.34 227.88C416.87 228.97 415.22 229.51 413.37 229.51H407.93C406.77 229.51 405.95 229.24 405.46 228.71C404.97 228.18 404.72 227.49 404.72 226.64C404.72 225.79 404.97 225.08 405.46 224.54C405.95 224.01 406.78 223.74 407.93 223.74H413.23C414.7 223.74 415.84 223.26 416.65 222.31C417.46 221.35 417.87 220.14 417.87 218.68V197.7H417.88ZM419.85 180.99V187.09H414.11V180.99H419.85Z" fill="#322A2E"/>
<path d="M458.21 205.18C458.21 207.39 457.7 209.53 456.67 211.61C455.65 213.68 454.12 215.33 452.1 216.56C450.08 217.79 447.96 218.4 445.76 218.4C443.56 218.4 441.48 217.8 439.48 216.59C437.48 215.38 435.96 213.74 434.91 211.65C433.86 209.57 433.34 207.39 433.34 205.13C433.34 202.87 433.87 200.56 434.93 198.34C435.99 196.12 437.52 194.37 439.51 193.09C441.5 191.82 443.58 191.18 445.76 191.18C447.94 191.18 450.05 191.83 452.08 193.13C454.1 194.43 455.63 196.19 456.66 198.39C457.69 200.59 458.21 202.86 458.21 205.18ZM453.41 205.21C453.41 203.35 452.86 201.65 451.75 200.09C450.23 197.99 448.24 196.94 445.77 196.94C443.6 196.94 441.79 197.77 440.33 199.44C438.88 201.11 438.15 203.04 438.15 205.23C438.15 207.03 438.88 208.71 440.35 210.28C441.82 211.85 443.62 212.63 445.76 212.63C447.9 212.63 449.73 211.85 451.2 210.28C452.67 208.71 453.4 207.02 453.4 205.2L453.41 205.21Z" fill="#322A2E"/>
<path d="M475.46 191.94V195.54C477.48 193.8 479.07 192.63 480.23 192.05C481.39 191.47 482.48 191.18 483.5 191.18C485.06 191.18 486.58 191.87 488.05 193.26C489.05 194.2 489.55 195.15 489.55 196.13C489.55 196.96 489.31 197.65 488.84 198.23C488.36 198.8 487.79 199.09 487.12 199.09C486.53 199.09 485.9 198.73 485.24 198.02C484.58 197.31 484 196.95 483.48 196.95C482.81 196.95 481.8 197.46 480.47 198.47C479.13 199.48 477.47 201 475.47 203.03V211.72H482.31C483.47 211.72 484.29 211.99 484.78 212.52C485.27 213.05 485.52 213.75 485.52 214.62C485.52 215.49 485.27 216.15 484.78 216.69C484.29 217.22 483.46 217.49 482.31 217.49H467.8C466.64 217.49 465.82 217.22 465.33 216.69C464.84 216.16 464.59 215.46 464.59 214.59C464.59 213.72 464.84 213.06 465.33 212.52C465.82 211.99 466.65 211.72 467.8 211.72H470.66V197.71H468.93C467.77 197.71 466.95 197.44 466.46 196.91C465.97 196.38 465.72 195.68 465.72 194.81C465.72 193.94 465.97 193.28 466.46 192.74C466.95 192.21 467.78 191.94 468.93 191.94H475.47H475.46Z" fill="#322A2E"/>
<path d="M502.32 191.94V193.88C503.2 192.98 504.16 192.3 505.21 191.85C506.26 191.4 507.41 191.18 508.64 191.18C511.48 191.18 513.73 192.24 515.39 194.36C516.7 196.05 517.36 198.26 517.36 201V211.72C518.38 211.72 519.13 211.99 519.61 212.52C520.09 213.05 520.34 213.75 520.34 214.62C520.34 215.49 520.09 216.15 519.6 216.69C519.11 217.22 518.28 217.49 517.13 217.49H512.79C511.63 217.49 510.81 217.22 510.32 216.69C509.83 216.16 509.58 215.46 509.58 214.59C509.58 213.72 509.82 213.06 510.31 212.52C510.79 211.99 511.54 211.72 512.56 211.72V200.84C512.56 199.58 512.28 198.67 511.72 198.08C510.99 197.33 509.88 196.96 508.42 196.96C507.31 196.96 506.34 197.22 505.5 197.73C504.66 198.25 503.61 199.34 502.32 201.01V211.73C503.55 211.73 504.35 211.87 504.71 212.15C505.48 212.71 505.86 213.54 505.86 214.63C505.86 215.47 505.61 216.16 505.12 216.7C504.63 217.23 503.8 217.5 502.65 217.5H497.19C496.03 217.5 495.21 217.23 494.72 216.7C494.23 216.17 493.98 215.47 493.98 214.6C493.98 213.55 494.36 212.73 495.1 212.15C495.48 211.87 496.28 211.73 497.51 211.73V197.72C496.49 197.72 495.74 197.45 495.26 196.9C494.78 196.36 494.53 195.66 494.53 194.82C494.53 193.98 494.78 193.29 495.27 192.75C495.76 192.22 496.59 191.95 497.74 191.95H502.31L502.32 191.94Z" fill="#322A2E"/>
<path d="M542.23 217.47V216.12C541.03 216.89 539.7 217.47 538.25 217.85C536.8 218.23 535.48 218.43 534.29 218.43C531.71 218.43 529.62 217.61 528.01 215.97C526.4 214.33 525.6 212.52 525.6 210.53C525.6 208.11 526.63 205.87 528.68 203.79C530.73 201.71 533.57 200.68 537.2 200.68C538.65 200.68 540.33 200.87 542.24 201.24V199.86C542.24 199 541.93 198.3 541.31 197.75C540.69 197.21 539.52 196.93 537.78 196.93C536.36 196.93 534.51 197.27 532.25 197.94C531.41 198.18 530.75 198.31 530.28 198.31C529.64 198.31 529.1 198.03 528.65 197.48C528.2 196.93 527.98 196.22 527.98 195.36C527.98 194.87 528.06 194.45 528.21 194.09C528.37 193.73 528.59 193.45 528.87 193.23C529.15 193.01 529.74 192.76 530.63 192.46C531.82 192.07 533.03 191.75 534.26 191.52C535.49 191.29 536.61 191.17 537.61 191.17C540.59 191.17 542.91 191.94 544.56 193.49C546.21 195.04 547.03 197.15 547.03 199.83V211.7H547.85C549.01 211.7 549.83 211.97 550.32 212.5C550.81 213.03 551.06 213.73 551.06 214.6C551.06 215.47 550.81 216.13 550.32 216.67C549.83 217.2 549 217.47 547.85 217.47H542.23ZM542.23 207.15C540.31 206.7 538.53 206.47 536.91 206.47C534.96 206.47 533.28 207.04 531.87 208.19C530.99 208.92 530.56 209.66 530.56 210.41C530.56 210.95 530.77 211.39 531.19 211.73C531.97 212.35 533.04 212.66 534.4 212.66C535.56 212.66 536.86 212.39 538.33 211.84C539.79 211.3 541.09 210.56 542.23 209.62V207.14V207.15Z" fill="#322A2E"/>
<path d="M573.82 198.69C573.04 198.11 572.22 197.67 571.36 197.38C570.5 197.09 569.6 196.94 568.66 196.94C566.8 196.94 565.32 197.31 564.23 198.04C563.75 198.36 563.5 198.71 563.5 199.08C563.5 199.51 563.83 199.93 564.48 200.35C564.98 200.65 566.1 200.94 567.83 201.22C571.02 201.75 573.24 202.27 574.49 202.8C576.13 203.49 577.4 204.53 578.29 205.89C579.18 207.25 579.63 208.7 579.63 210.22C579.63 212.28 578.87 214.01 577.36 215.4C575.19 217.41 572.37 218.41 568.9 218.41C567.51 218.41 566.22 218.26 565.04 217.97C563.86 217.68 562.78 217.25 561.79 216.69C561.56 216.93 561.31 217.12 561.04 217.25C560.77 217.38 560.5 217.45 560.22 217.45C559.47 217.45 558.87 217.16 558.43 216.56C557.99 215.96 557.76 214.98 557.76 213.59V211.65C557.76 210.26 557.98 209.27 558.43 208.68C558.88 208.09 559.46 207.79 560.18 207.79C560.76 207.79 561.24 207.98 561.63 208.37C562.02 208.75 562.33 209.42 562.54 210.35C563.27 211.1 564.16 211.67 565.19 212.05C566.22 212.43 567.41 212.63 568.75 212.63C570.95 212.63 572.66 212.22 573.88 211.39C574.46 210.98 574.75 210.55 574.75 210.1C574.75 209.35 574.34 208.73 573.51 208.24C572.68 207.75 570.97 207.34 568.38 207C564.52 206.51 561.94 205.58 560.65 204.19C559.35 202.82 558.7 201.13 558.7 199.13C558.7 197.13 559.43 195.35 560.88 193.98C562.85 192.11 565.43 191.17 568.61 191.17C569.72 191.17 570.79 191.3 571.81 191.55C572.83 191.8 573.81 192.19 574.75 192.72C575.05 192.46 575.32 192.26 575.58 192.13C575.84 192 576.08 191.93 576.29 191.93C576.95 191.93 577.49 192.23 577.93 192.82C578.37 193.41 578.59 194.4 578.59 195.79V197.2C578.59 198.46 578.47 199.31 578.21 199.76C577.71 200.62 577.03 201.05 576.17 201.05C575.59 201.05 575.08 200.83 574.65 200.4C574.21 199.97 573.93 199.4 573.81 198.68L573.82 198.69Z" fill="#322A2E"/>
<path d="M252.95 234.67V247.61C254.12 246.69 255.31 246 256.52 245.54C257.73 245.08 258.95 244.85 260.19 244.85C263.52 244.85 266.34 246.23 268.65 248.98C270.96 251.73 272.12 255.06 272.12 258.96C272.12 262.86 271.02 265.81 268.82 268.31C266.62 270.81 263.71 272.06 260.1 272.06C258.82 272.06 257.58 271.86 256.4 271.47C255.21 271.08 254.06 270.5 252.95 269.73V271.14H247.33C246.17 271.14 245.35 270.87 244.86 270.34C244.37 269.81 244.12 269.11 244.12 268.24C244.12 267.37 244.37 266.71 244.87 266.17C245.37 265.64 246.19 265.37 247.33 265.37H248.15V240.42H247.33C246.17 240.42 245.35 240.15 244.86 239.62C244.37 239.09 244.12 238.39 244.12 237.52C244.12 236.65 244.37 235.99 244.86 235.45C245.35 234.92 246.18 234.65 247.33 234.65H252.95V234.67ZM267.32 259.14C267.32 256.76 266.62 254.74 265.23 253.09C263.84 251.44 262.14 250.61 260.12 250.61C258.1 250.61 256.42 251.44 255.03 253.09C253.64 254.74 252.94 256.73 252.94 259.05C252.94 261.17 253.56 262.91 254.82 264.27C256.08 265.63 257.84 266.31 260.12 266.31C262.4 266.31 264.17 265.63 265.43 264.27C266.69 262.91 267.32 261.2 267.32 259.14Z" fill="#322A2E"/>
<path d="M302.21 258.85C302.21 261.06 301.7 263.2 300.67 265.28C299.65 267.35 298.12 269 296.1 270.23C294.08 271.46 291.96 272.07 289.76 272.07C287.56 272.07 285.48 271.47 283.48 270.26C281.48 269.05 279.96 267.41 278.91 265.32C277.86 263.24 277.34 261.06 277.34 258.8C277.34 256.54 277.87 254.23 278.93 252.01C279.99 249.79 281.52 248.04 283.51 246.76C285.5 245.49 287.58 244.85 289.76 244.85C291.94 244.85 294.05 245.5 296.08 246.8C298.1 248.1 299.63 249.86 300.66 252.06C301.69 254.26 302.21 256.53 302.21 258.85ZM297.41 258.88C297.41 257.02 296.86 255.32 295.75 253.76C294.23 251.66 292.24 250.61 289.77 250.61C287.6 250.61 285.79 251.44 284.33 253.11C282.88 254.78 282.15 256.71 282.15 258.9C282.15 260.7 282.88 262.38 284.35 263.95C285.82 265.52 287.62 266.3 289.76 266.3C291.9 266.3 293.73 265.52 295.2 263.95C296.67 262.38 297.4 260.69 297.4 258.87L297.41 258.88ZM287.26 238.04C287.26 238.9 287.01 239.63 286.52 240.22C286.03 240.81 285.43 241.11 284.73 241.11C284.03 241.11 283.43 240.81 282.93 240.21C282.43 239.61 282.18 238.89 282.18 238.04C282.18 237.19 282.43 236.48 282.93 235.89C283.43 235.3 284.03 235 284.73 235C285.43 235 286.03 235.3 286.52 235.89C287.01 236.48 287.26 237.2 287.26 238.04ZM297.29 238.04C297.29 238.9 297.04 239.63 296.54 240.22C296.04 240.81 295.44 241.11 294.74 241.11C294.04 241.11 293.44 240.81 292.95 240.21C292.46 239.61 292.21 238.89 292.21 238.04C292.21 237.19 292.46 236.48 292.95 235.89C293.44 235.3 294.04 235 294.74 235C295.44 235 296.04 235.3 296.54 235.89C297.04 236.48 297.29 237.2 297.29 238.04Z" fill="#322A2E"/>
<path d="M327.95 246.65C328.53 245.99 329.12 245.67 329.73 245.67C330.42 245.67 330.98 245.97 331.43 246.56C331.88 247.15 332.1 248.13 332.1 249.5V253.21C332.1 254.6 331.88 255.58 331.43 256.16C330.98 256.74 330.4 257.03 329.68 257.03C329.02 257.03 328.47 256.8 328.02 256.35C327.69 256.01 327.43 255.32 327.25 254.28C327.07 253.24 326.61 252.47 325.89 251.96C324.62 251.06 323.01 250.61 321.04 250.61C318.77 250.61 316.96 251.41 315.59 253C314.22 254.59 313.54 256.61 313.54 259.05C313.54 261.3 314.2 263.08 315.51 264.38C316.82 265.68 319 266.33 322.05 266.33C324.05 266.33 325.68 266.09 326.95 265.6C327.7 265.3 328.41 264.79 329.08 264.07C329.75 263.35 330.36 262.99 330.91 262.99C331.57 262.99 332.13 263.28 332.61 263.86C333.09 264.44 333.32 265.13 333.32 265.91C333.32 267.19 332.59 268.39 331.14 269.54C328.98 271.25 325.83 272.1 321.67 272.1C317.94 272.1 315.03 271.17 312.95 269.32C310.14 266.83 308.73 263.41 308.73 259.08C308.73 254.97 309.87 251.58 312.15 248.88C314.43 246.18 317.41 244.84 321.08 244.84C322.41 244.84 323.64 244.99 324.78 245.29C325.92 245.59 326.98 246.04 327.94 246.64L327.95 246.65Z" fill="#322A2E"/>
<path d="M347.23 261.55V271.14H341.61C340.45 271.14 339.63 270.87 339.14 270.34C338.65 269.81 338.4 269.11 338.4 268.24C338.4 267.37 338.65 266.71 339.15 266.17C339.65 265.64 340.47 265.37 341.61 265.37H342.43V240.42H341.61C340.45 240.42 339.63 240.15 339.14 239.62C338.65 239.09 338.4 238.39 338.4 237.52C338.4 236.65 338.65 235.99 339.14 235.45C339.63 234.92 340.46 234.65 341.61 234.65H347.23V254.08L350.98 250.45C350.59 249.64 350.39 248.99 350.39 248.48C350.39 247.62 350.63 246.92 351.12 246.38C351.6 245.85 352.42 245.58 353.58 245.58H359.06C360.22 245.58 361.04 245.85 361.53 246.38C362.02 246.91 362.27 247.61 362.27 248.48C362.27 249.35 362.02 250.01 361.53 250.55C361.04 251.08 360.21 251.35 359.06 251.35H357.72L351.88 257.03L359.73 265.36H361.14C362.3 265.36 363.12 265.63 363.61 266.16C364.1 266.69 364.35 267.39 364.35 268.26C364.35 269.13 364.1 269.79 363.61 270.33C363.12 270.86 362.29 271.13 361.14 271.13H355.61C354.45 271.13 353.63 270.86 353.14 270.33C352.65 269.8 352.4 269.1 352.4 268.23C352.4 267.5 352.67 266.78 353.2 266.06L348.11 260.66L347.22 261.53L347.23 261.55Z" fill="#322A2E"/>
<path d="M393.97 261.3H374.26C374.76 262.8 375.65 264.01 376.92 264.93C378.19 265.85 379.92 266.31 382.09 266.31C383.87 266.31 386.24 265.85 389.19 264.93C390.41 264.56 391.25 264.37 391.72 264.37C392.36 264.37 392.9 264.64 393.34 265.19C393.78 265.74 394 266.42 394 267.24C394 267.99 393.77 268.63 393.3 269.15C392.68 269.84 391.15 270.5 388.73 271.13C386.31 271.76 383.98 272.07 381.75 272.07C377.91 272.07 374.83 270.77 372.53 268.16C370.23 265.55 369.07 262.35 369.07 258.54C369.07 254.49 370.32 251.2 372.81 248.65C375.3 246.11 378.17 244.84 381.42 244.84C383.37 244.84 385.17 245.25 386.8 246.08C388.43 246.91 389.65 247.8 390.44 248.75C391.56 250.14 392.49 251.85 393.23 253.9C393.73 255.33 393.98 256.98 393.98 258.85V261.3H393.97ZM388.65 255.53C387.92 253.88 386.95 252.65 385.77 251.83C384.58 251.01 383.17 250.61 381.53 250.61C379.89 250.61 378.5 251.02 377.31 251.83C376.12 252.65 375.15 253.88 374.4 255.53H388.65Z" fill="#322A2E"/>
<path d="M411.64 245.61V249.21C413.66 247.47 415.25 246.3 416.41 245.72C417.57 245.14 418.66 244.85 419.68 244.85C421.24 244.85 422.76 245.54 424.23 246.93C425.23 247.87 425.73 248.82 425.73 249.8C425.73 250.63 425.49 251.32 425.02 251.9C424.54 252.47 423.97 252.76 423.3 252.76C422.71 252.76 422.08 252.4 421.42 251.69C420.76 250.98 420.18 250.62 419.66 250.62C418.99 250.62 417.98 251.13 416.65 252.14C415.31 253.15 413.65 254.67 411.65 256.7V265.39H418.49C419.65 265.39 420.47 265.66 420.96 266.19C421.45 266.72 421.7 267.42 421.7 268.29C421.7 269.16 421.45 269.82 420.96 270.36C420.47 270.89 419.64 271.16 418.49 271.16H403.98C402.82 271.16 402 270.89 401.51 270.36C401.02 269.83 400.77 269.13 400.77 268.26C400.77 267.39 401.02 266.73 401.51 266.19C402 265.66 402.83 265.39 403.98 265.39H406.84V251.38H405.11C403.95 251.38 403.13 251.11 402.64 250.58C402.15 250.05 401.9 249.35 401.9 248.48C401.9 247.61 402.15 246.95 402.64 246.41C403.13 245.88 403.96 245.61 405.11 245.61H411.65H411.64Z" fill="#322A2E"/>
<path d="M479.09 259.7L480.26 254.81H482.72C483.72 254.81 484.41 254.95 484.78 255.23C485.53 255.81 485.9 256.65 485.9 257.73C485.9 258.52 485.7 259.18 485.3 259.71C484.9 260.24 484.42 260.53 483.86 260.57C483.47 262.58 482.98 264.18 482.38 265.38C483.65 265.38 484.46 265.52 484.82 265.8C485.59 266.36 485.97 267.19 485.97 268.28C485.97 269.12 485.72 269.81 485.23 270.35C484.74 270.88 483.91 271.15 482.76 271.15H479.9L479.34 270.25C478.64 270.85 477.96 271.26 477.32 271.49C476.37 271.83 475.21 272 473.85 272C471.02 272 468.83 271.13 467.28 269.4C465.73 267.67 464.95 265.47 464.95 262.8C464.95 260.98 465.34 259.24 466.11 257.58C466.88 255.92 468.07 254.53 469.66 253.4C468.97 252.03 468.52 250.97 468.31 250.21C468.1 249.45 467.99 248.64 467.99 247.78C467.99 245.46 468.72 243.42 470.19 241.66C471.66 239.91 473.4 239.03 475.42 239.03C475.95 239.03 476.5 239.11 477.06 239.27C477.62 239.43 478.2 239.68 478.79 240.02C479.35 239.72 479.77 239.57 480.06 239.57C480.72 239.57 481.28 239.86 481.75 240.43C482.22 241 482.45 241.68 482.45 242.47C482.45 243.13 482.32 243.67 482.06 244.09C481.8 244.51 481.28 244.98 480.5 245.48L478.48 246.77C477.71 245.94 477.1 245.39 476.63 245.11C476.27 244.9 475.86 244.8 475.39 244.8C474.66 244.8 474.04 245.1 473.54 245.69C473.04 246.28 472.79 246.96 472.79 247.73C472.79 248.39 473.25 249.52 474.17 251.13L479.07 259.71L479.09 259.7ZM472.43 258.24C470.65 259.23 469.76 260.74 469.76 262.77C469.76 263.84 470.06 264.68 470.67 265.3C471.28 265.92 472.34 266.23 473.86 266.23C474.83 266.23 475.72 265.95 476.53 265.39L472.43 258.25V258.24Z" fill="#322A2E"/>
<path d="M531.58 261.55V271.14H525.96C524.8 271.14 523.98 270.87 523.49 270.34C523 269.81 522.75 269.11 522.75 268.24C522.75 267.37 523 266.71 523.5 266.17C524 265.64 524.82 265.37 525.96 265.37H526.78V240.42H525.96C524.8 240.42 523.98 240.15 523.49 239.62C523 239.09 522.75 238.39 522.75 237.52C522.75 236.65 523 235.99 523.49 235.45C523.98 234.92 524.81 234.65 525.96 234.65H531.58V254.08L535.33 250.45C534.94 249.64 534.74 248.99 534.74 248.48C534.74 247.62 534.98 246.92 535.47 246.38C535.95 245.85 536.77 245.58 537.93 245.58H543.41C544.57 245.58 545.39 245.85 545.88 246.38C546.37 246.91 546.62 247.61 546.62 248.48C546.62 249.35 546.37 250.01 545.88 250.55C545.39 251.08 544.56 251.35 543.41 251.35H542.07L536.23 257.03L544.08 265.36H545.49C546.65 265.36 547.47 265.63 547.96 266.16C548.45 266.69 548.7 267.39 548.7 268.26C548.7 269.13 548.45 269.79 547.96 270.33C547.47 270.86 546.64 271.13 545.49 271.13H539.96C538.8 271.13 537.98 270.86 537.49 270.33C537 269.8 536.75 269.1 536.75 268.23C536.75 267.5 537.02 266.78 537.55 266.06L532.46 260.66L531.57 261.53L531.58 261.55Z" fill="#322A2E"/>
<path d="M570.58 271.14V269.79C569.38 270.56 568.05 271.14 566.6 271.52C565.15 271.9 563.83 272.1 562.64 272.1C560.06 272.1 557.97 271.28 556.36 269.64C554.75 268 553.95 266.19 553.95 264.2C553.95 261.78 554.98 259.54 557.03 257.46C559.08 255.38 561.92 254.35 565.55 254.35C567 254.35 568.68 254.54 570.59 254.91V253.53C570.59 252.67 570.28 251.97 569.66 251.42C569.04 250.88 567.87 250.6 566.13 250.6C564.71 250.6 562.86 250.94 560.6 251.61C559.76 251.85 559.1 251.98 558.63 251.98C557.99 251.98 557.45 251.7 557 251.15C556.55 250.6 556.33 249.89 556.33 249.03C556.33 248.54 556.41 248.12 556.56 247.76C556.72 247.4 556.94 247.12 557.22 246.9C557.5 246.68 558.09 246.43 558.98 246.13C560.17 245.74 561.38 245.42 562.61 245.19C563.84 244.96 564.96 244.84 565.96 244.84C568.94 244.84 571.26 245.61 572.91 247.16C574.56 248.71 575.38 250.82 575.38 253.5V265.37H576.2C577.36 265.37 578.18 265.64 578.67 266.17C579.16 266.7 579.41 267.4 579.41 268.27C579.41 269.14 579.16 269.8 578.67 270.34C578.18 270.87 577.35 271.14 576.2 271.14H570.58ZM570.58 260.82C568.66 260.37 566.88 260.14 565.26 260.14C563.31 260.14 561.63 260.71 560.22 261.86C559.34 262.59 558.91 263.33 558.91 264.08C558.91 264.62 559.12 265.06 559.54 265.4C560.32 266.02 561.39 266.33 562.75 266.33C563.91 266.33 565.21 266.06 566.68 265.51C568.14 264.97 569.44 264.23 570.58 263.29V260.81V260.82Z" fill="#322A2E"/>
<path d="M596.94 251.37V265.38H603.78C604.94 265.38 605.76 265.65 606.25 266.18C606.74 266.71 606.99 267.41 606.99 268.28C606.99 269.15 606.74 269.81 606.25 270.35C605.76 270.88 604.93 271.15 603.78 271.15H589.27C588.11 271.15 587.29 270.88 586.8 270.35C586.31 269.82 586.06 269.12 586.06 268.25C586.06 267.38 586.31 266.72 586.8 266.18C587.29 265.65 588.12 265.38 589.27 265.38H592.13V251.37H589.83C588.67 251.37 587.85 251.1 587.36 250.57C586.87 250.04 586.62 249.34 586.62 248.47C586.62 247.6 586.87 246.94 587.36 246.4C587.85 245.87 588.68 245.6 589.83 245.6H592.13V243.41C592.13 240.9 592.92 238.81 594.49 237.15C596.06 235.49 598.34 234.66 601.32 234.66C602.65 234.66 604.18 234.81 605.93 235.1C607.68 235.39 608.79 235.8 609.28 236.32C609.77 236.85 610.02 237.52 610.02 238.34C610.02 239.22 609.8 239.94 609.36 240.49C608.92 241.04 608.38 241.32 607.74 241.32C607.44 241.32 607 241.25 606.4 241.12C604.42 240.65 602.66 240.42 601.13 240.42C599.6 240.42 598.44 240.71 597.84 241.28C597.24 241.85 596.94 242.56 596.94 243.4V245.59H604.35C605.51 245.59 606.33 245.86 606.82 246.39C607.31 246.92 607.56 247.62 607.56 248.49C607.56 249.36 607.31 250.02 606.82 250.56C606.33 251.09 605.5 251.36 604.35 251.36H596.94V251.37Z" fill="#322A2E"/>
<path d="M627.67 251.37V265.38H634.51C635.67 265.38 636.49 265.65 636.98 266.18C637.47 266.71 637.72 267.41 637.72 268.28C637.72 269.15 637.47 269.81 636.98 270.35C636.49 270.88 635.66 271.15 634.51 271.15H620C618.84 271.15 618.02 270.88 617.53 270.35C617.04 269.82 616.79 269.12 616.79 268.25C616.79 267.38 617.04 266.72 617.53 266.18C618.02 265.65 618.85 265.38 620 265.38H622.86V251.37H620.56C619.4 251.37 618.58 251.1 618.09 250.57C617.6 250.04 617.35 249.34 617.35 248.47C617.35 247.6 617.6 246.94 618.09 246.4C618.58 245.87 619.41 245.6 620.56 245.6H622.86V243.41C622.86 240.9 623.65 238.81 625.22 237.15C626.79 235.49 629.07 234.66 632.05 234.66C633.38 234.66 634.91 234.81 636.66 235.1C638.41 235.39 639.52 235.8 640.01 236.32C640.5 236.85 640.75 237.52 640.75 238.34C640.75 239.22 640.53 239.94 640.09 240.49C639.65 241.04 639.11 241.32 638.47 241.32C638.17 241.32 637.73 241.25 637.13 241.12C635.15 240.65 633.39 240.42 631.86 240.42C630.33 240.42 629.17 240.71 628.57 241.28C627.97 241.85 627.67 242.56 627.67 243.4V245.59H635.08C636.24 245.59 637.06 245.86 637.55 246.39C638.04 246.92 638.29 247.62 638.29 248.49C638.29 249.36 638.04 250.02 637.55 250.56C637.06 251.09 636.23 251.36 635.08 251.36H627.67V251.37Z" fill="#322A2E"/>
<path d="M670.49 261.3H650.78C651.28 262.8 652.17 264.01 653.44 264.93C654.71 265.85 656.44 266.31 658.61 266.31C660.39 266.31 662.76 265.85 665.71 264.93C666.93 264.56 667.77 264.37 668.24 264.37C668.88 264.37 669.42 264.64 669.86 265.19C670.3 265.74 670.52 266.42 670.52 267.24C670.52 267.99 670.29 268.63 669.82 269.15C669.2 269.84 667.67 270.5 665.25 271.13C662.83 271.76 660.5 272.07 658.27 272.07C654.43 272.07 651.35 270.77 649.05 268.16C646.75 265.55 645.59 262.35 645.59 258.54C645.59 254.49 646.84 251.2 649.33 248.65C651.82 246.11 654.69 244.84 657.94 244.84C659.89 244.84 661.69 245.25 663.32 246.08C664.95 246.91 666.17 247.8 666.96 248.75C668.08 250.14 669.01 251.85 669.75 253.9C670.25 255.33 670.5 256.98 670.5 258.85V261.3H670.49ZM665.17 255.53C664.44 253.88 663.47 252.65 662.29 251.83C661.1 251.01 659.69 250.61 658.05 250.61C656.41 250.61 655.02 251.02 653.83 251.83C652.64 252.65 651.67 253.88 650.92 255.53H665.17Z" fill="#322A2E"/>
</svg>
