<svg width="41" height="40" viewBox="0 0 41 40" fill="none" xmlns="http://www.w3.org/2000/svg">
<path d="M20.495 13.3305C16.8225 13.3305 13.8255 16.3275 13.8255 20C13.8255 23.6725 16.8225 26.6695 20.495 26.6695C24.1675 26.6695 27.1645 23.6725 27.1645 20C27.1645 16.3275 24.1675 13.3305 20.495 13.3305ZM40.4985 20C40.4985 17.2381 40.5235 14.5013 40.3684 11.7444C40.2133 8.54226 39.4828 5.70034 37.1412 3.35876C34.7947 1.01217 31.9577 0.286681 28.7556 0.131576C25.9937 -0.0235287 23.2569 0.00148823 20.5 0.00148823C17.7381 0.00148823 15.0013 -0.0235287 12.2444 0.131576C9.04226 0.286681 6.20034 1.01717 3.85876 3.35876C1.51217 5.70534 0.786681 8.54226 0.631576 11.7444C0.476471 14.5063 0.501488 17.2431 0.501488 20C0.501488 22.7569 0.476471 25.4987 0.631576 28.2556C0.786681 31.4577 1.51717 34.2997 3.85876 36.6412C6.20534 38.9878 9.04226 39.7133 12.2444 39.8684C15.0063 40.0235 17.7431 39.9985 20.5 39.9985C23.2619 39.9985 25.9987 40.0235 28.7556 39.8684C31.9577 39.7133 34.7997 38.9828 37.1412 36.6412C39.4878 34.2947 40.2133 31.4577 40.3684 28.2556C40.5285 25.4987 40.4985 22.7619 40.4985 20ZM20.495 30.2619C14.8162 30.2619 10.2331 25.6788 10.2331 20C10.2331 14.3212 14.8162 9.73807 20.495 9.73807C26.1738 9.73807 30.7569 14.3212 30.7569 20C30.7569 25.6788 26.1738 30.2619 20.495 30.2619ZM31.1772 11.7144C29.8513 11.7144 28.7806 10.6437 28.7806 9.31778C28.7806 7.99189 29.8513 6.92116 31.1772 6.92116C32.5031 6.92116 33.5738 7.99189 33.5738 9.31778C33.5742 9.63262 33.5125 9.94445 33.3922 10.2354C33.2719 10.5263 33.0954 10.7907 32.8728 11.0133C32.6501 11.236 32.3858 11.4125 32.0948 11.5328C31.8039 11.6531 31.4921 11.7148 31.1772 11.7144Z" fill="#F8F5EA"/>
</svg>
