<svg width="231" height="218" viewBox="0 0 231 218" fill="none" xmlns="http://www.w3.org/2000/svg">
<path d="M188.114 72.2468C187.884 49.5616 167.629 27.8601 157.721 31.6862C155.411 19.4345 142.281 9.06543 116.638 9.06543C86.8553 9.06543 82.8351 27.314 71.885 30.8144C54.3407 36.4213 56.4074 49.8703 52.065 53.6048C46.7014 58.2144 43.7196 65.1305 43.0342 72.2434C42.8731 73.902 42.8388 75.5709 42.9245 77.2261C43.1233 81.0251 42.7737 92.8052 57.6789 98.2221C58.7516 98.6122 59.8998 98.9684 61.1405 99.2872C63.6012 99.9215 66.4013 100.403 69.5818 100.691C70.0925 100.736 70.5929 100.793 71.0898 100.854C72.1763 100.993 73.249 101.166 74.3183 101.373C79.6957 102.411 85.1005 104.192 92.5754 105.566C93.5762 105.749 94.6146 105.925 95.6908 106.091C100.736 106.868 106.703 107.421 114.092 107.465C114.424 107.469 114.76 107.469 115.099 107.469C115.781 107.469 116.453 107.465 117.111 107.462C124.785 107.414 130.711 107.085 135.492 106.604C136.578 106.492 137.61 106.376 138.587 106.254C147.258 105.152 151.826 103.544 157.317 102.476H157.32C158.358 102.275 159.424 102.092 160.566 101.936C162.101 101.723 163.756 101.563 165.621 101.465C166.755 101.404 167.831 101.292 168.86 101.132C170.028 100.949 171.132 100.702 172.167 100.396C186.394 96.2175 188.135 81.2591 188.114 72.5351C188.114 72.4367 188.114 72.3384 188.111 72.24L188.114 72.2468ZM142.85 45.4777L149.136 52.1022L144.132 56.9662L140.55 51.2067L142.847 45.4777H142.85ZM115.384 28.1993L125.357 28.0806L115.384 38.1274V28.2027V28.1993ZM104.852 56.3488L115.675 55.6603L116.642 63.2446H104.852V56.3455V56.3488ZM81.7144 43.7818L90.4471 51.5018L80.4874 52.5804L75.7372 49.8024L81.7144 43.7818Z" fill="#4E4247"/>
<path d="M82.8544 151.831C77.4907 149.505 74.2348 146.214 72.9392 141.822L61.1426 101.902C63.6034 102.537 66.4034 103.018 69.584 103.307C70.0946 103.351 70.595 103.408 71.092 103.469L82.8544 151.828V151.831Z" fill="#4E4247"/>
<path d="M168.862 103.754L158.744 142.51C157.538 146.581 154.142 149.766 148.586 152.055L160.568 104.555C162.103 104.341 163.758 104.182 165.623 104.083C166.757 104.022 167.834 103.91 168.862 103.751V103.754Z" fill="#4E4247"/>
<path d="M157.322 105.095L145.172 153.27C141.56 154.373 137.259 155.187 132.275 155.712L138.592 108.873C147.263 107.771 151.831 106.163 157.322 105.095Z" fill="#4E4247"/>
<path d="M135.498 109.227L129.191 155.994H129.188C125.497 156.283 121.477 156.429 117.117 156.429V110.088C124.791 110.041 130.717 109.712 135.498 109.23V109.227Z" fill="#4E4247"/>
<path d="M114.093 110.087V156.407C109.692 156.349 105.689 156.176 102.056 155.867H102.053L95.6953 108.713C100.74 109.49 106.707 110.043 114.096 110.087H114.093Z" fill="#4E4247"/>
<path d="M98.9712 155.57C93.9708 155.017 89.7587 154.196 86.2697 153.094L74.3223 103.992C79.6997 105.03 85.1045 106.811 92.5793 108.185L98.9712 155.57Z" fill="#4E4247"/>
<path d="M9.269 164.458C10.9154 157.452 19.5004 156.11 23.5149 156.716C27.923 157.381 71.5356 170.373 83.982 167.358C108.891 161.329 148.988 180.743 148.988 180.743C163.406 172.562 174.134 171.946 186.209 172.265C200.908 172.654 224.835 180.468 222.055 191.271C221.821 192.177 221.458 193.076 220.971 193.967C213.885 196.78 194.66 203.579 176.371 202.612C174.428 202.51 167.496 202.018 159.867 200.011C153.003 198.209 148.064 195.788 145.574 193.014C145.486 192.916 145.402 192.817 145.318 192.718C144.065 190.015 144.012 188.067 144.012 188.067C144.012 188.067 112.599 172.766 86.6937 177.169C63.2911 181.148 28.4416 180.601 19.1693 177.809C9.89694 175.017 7.61947 171.461 9.26275 164.455L9.269 164.458Z" fill="#4E4247"/>
<path d="M176.253 204.894C192.208 205.738 208.812 200.837 217.866 197.585C218.075 197.511 218.275 197.436 218.475 197.365C211.374 204.928 195.135 210.654 174.616 208.317C161.57 206.829 154.087 202.844 149.795 198.797C157.868 202.847 169.786 204.554 176.253 204.894Z" fill="#4E4247"/>
</svg>
